<?xml version="1.0" encoding="UTF-8"?>
<svg width="72px" height="72px" viewBox="0 0 72 72" version="1.1" xmlns="http://www.w3.org/2000/svg" xmlns:xlink="http://www.w3.org/1999/xlink">
    <!-- Generator: Sketch 56.3 (81716) - https://sketch.com -->
    <title>FancyDnDBox</title>
    <desc>Created with Sketch.</desc>
    <defs>
        <rect id="path-1" x="0" y="0" width="36" height="36"></rect>
        <rect id="path-3" x="0" y="0" width="36" height="36"></rect>
        <rect id="path-5" x="0" y="0" width="36" height="36"></rect>
        <rect id="path-7" x="0" y="0" width="36" height="36"></rect>
    </defs>
    <g id="FancyDnDBox" stroke="none" stroke-width="1" fill="none" fill-rule="evenodd">
        <g id="Bottom-Right" transform="translate(35.000000, 36.000000)">
            <mask id="mask-2" fill="white">
                <use xlink:href="#path-1"></use>
            </mask>
            <g id="Rectangle"></g>
            <g id="Group-2961" mask="url(#mask-2)">
                <g transform="translate(-195.000000, -65.000000)">
                    <path d="M226,12.3112322 L226,86.6897679 L225.524083,86.8777996 C223.106422,87.8279598 219.928296,89.7512839 218.514571,93.5139181 L218.33222,94 L208.75075,94 L208.541347,93.5909311 C208.033367,92.5987638 205.801064,90.2893746 196.070307,90.2893746 L34.9397118,90.2893746 C29.7396883,90.2893746 26.0425617,90.926482 23.951531,92.1826937 C23.2642061,92.5917627 22.7532211,93.0838456 22.4706765,93.6059336 L22.2572651,94 L12.6677804,94 L12.484427,93.5139181 C11.0636884,89.7422824 7.88956994,87.8229589 5.47691931,86.8777996 L5,86.6897679 L5,12.3112322 L5.47691931,12.1242007 C7.89257573,11.1770411 11.068698,9.25771759 12.484427,5.48708209 L12.6677804,5 L22.2622748,5 L22.4736823,5.40006743 C22.7532211,5.92615609 23.2501791,6.40723717 23.951531,6.82830814 C26.0465694,8.07751868 29.743696,8.71062539 34.9397118,8.71062539 L196.070307,8.71062539 C201.25931,8.71062539 204.953431,8.07751868 207.050473,6.82730797 C207.940188,6.29221779 208.34096,5.76112828 208.521308,5.41006911 L208.72971,5 L218.33222,5 L218.514571,5.48708209 C219.931302,9.25771759 223.107424,11.1770411 225.523081,12.1242007 L226,12.3112322 Z" id="Fill-2955" stroke="none" fill-opacity="0" fill="#FFFFFF" fill-rule="evenodd"></path>
                    <polygon id="Rectangle" stroke="none" fill="#595959" fill-rule="evenodd" transform="translate(211.000000, 90.299966) scale(-1, -1) translate(-211.000000, -90.299966) " points="200.916679 90.2999663 203.738449 86 214.076223 86 219.417033 89.0252258 226 89.6907014 226 94.5999326 196 94.5999326"></polygon>
                    <path d="M227.277976,20.5675963 L231,16.8454398 L231,12.6030034 L230.067991,12.5358382 C229.926686,12.5258135 228.781217,12.4315817 227.275972,11.993504 C227.285993,11.8220823 227.47941,8.30743629 225.375875,6.06692463 C224.267486,4.88702207 222.761239,4.2895523 220.899224,4.2895523 L219.307793,4.2895523 C219.116381,3.45850793 219.007145,2.54726628 219.007145,1.54179281 L219.007145,0.539326744 L203.476664,0.539326744 C203.19205,0.21152034 202.77916,0 202.312153,0 C201.845147,0 201.431254,0.21152034 201.147643,0.539326744 L29.852357,0.539326744 C29.5687456,0.21152034 29.1558555,0 28.6888487,0 C28.2218419,0 27.8079496,0.21152034 27.5243382,0.539326744 L11.9938569,0.539326744 L11.9938569,1.54179281 C11.9938569,2.54726628 11.8846214,3.45850793 11.6932087,4.2895523 L10.1017779,4.2895523 C8.23976365,4.2895523 6.73351641,4.88702207 5.6251269,6.06692463 C3.521592,8.30743629 3.71500898,11.8220823 3.72302626,11.9082944 C2.21978551,12.4315817 1.07431606,12.5258135 0.933011427,12.5358382 L0,12.6030034 L0,16.8454398 L3.72302626,20.5675963 L3.72302626,32.8483935 L3.72302626,66.903132 L3.72302626,79.4324037 L0,83.1545602 L0,87.3969966 L0.933011427,87.4641618 C1.07431606,87.4741865 2.22078767,87.5684183 3.72603275,88.006496 C3.71601114,88.1779177 3.52259416,91.6925637 5.6251269,93.9330754 C6.73351641,95.1129779 8.23976365,95.7104477 10.1017779,95.7104477 L11.6932087,95.7104477 C11.8846214,96.5414921 11.9938569,97.4527337 11.9938569,98.4572047 L11.9938569,99.4596708 L27.5263425,99.4596708 C27.8079496,99.7884797 28.2228441,100 28.6898508,100 C29.1568576,100 29.5707499,99.7884797 29.852357,99.4596708 L201.149647,99.4596708 C201.431254,99.7884797 201.846149,100 202.313156,100 C202.780162,100 203.194055,99.7884797 203.476664,99.4596708 L219.007145,99.4596708 L219.007145,98.4572047 C219.007145,97.4527337 219.116381,96.5414921 219.307793,95.7104477 L220.899224,95.7104477 C222.761239,95.7104477 224.267486,95.1129779 225.376877,93.9330754 C227.47941,91.6925637 227.285993,88.1779177 227.278978,88.0917056 C228.781217,87.5684183 229.926686,87.4741865 230.067991,87.4641618 L231,87.3969966 L231,83.1545602 L227.277976,79.4324037 L227.277976,20.5675963 Z M225.275659,80.2634481 L225.275659,86.6200854 C222.52072,87.6997414 219.309798,89.778856 217.830609,93.7055156 L209.23107,93.7055156 C208.501497,92.2689817 205.811698,89.9833591 196.084728,89.9833591 L34.916274,89.9833591 C29.5867845,89.9833591 25.7605357,90.6580187 23.5437567,91.9872887 C22.5646459,92.5747338 22.0555483,93.1992702 21.790978,93.7055156 L13.1703933,93.7055156 C11.6912044,89.7808609 8.48228649,87.7017463 5.72734727,86.6210879 L5.72734727,79.8474247 L5.72734727,79.8474247 L5.72734727,19.7375544 L5.72734727,13.3789121 C8.48028217,12.2992562 11.6912044,10.2201415 13.1703933,6.29448443 L21.7899758,6.29448443 C22.0545462,6.8007298 22.5636437,7.42526615 23.5437567,8.01271127 C25.7595335,9.34198127 29.5867845,10.0166409 34.916274,10.0166409 L196.084728,10.0166409 C201.414218,10.0166409 205.241469,9.34198127 207.457245,8.01271127 C208.437358,7.42526615 208.946456,6.8007298 209.212029,6.29448443 L217.830609,6.29448443 C219.309798,10.2191391 222.518716,12.2982537 225.272653,13.3789121 L225.272653,19.7375544 L225.272653,20.1525753 L225.272653,80.2624456 L225.275659,80.2634481 Z M228.994677,14.4124546 L228.994677,16.0153979 L227.276974,17.7336247 L227.276974,14.0345249 C227.949423,14.2139664 228.546711,14.3382721 228.994677,14.4124546 L228.994677,14.4124546 Z M220.899224,6.29448443 C222.201031,6.29448443 223.185152,6.66740181 223.90771,7.43328588 C224.984031,8.5730898 225.219538,10.3133709 225.265638,11.2526816 C223.286371,10.3554745 221.181834,8.84275317 219.98826,6.29448443 L220.899224,6.29448443 Z M13.9671109,2.54425888 L27.5243382,2.54425888 C27.8079496,2.87306775 28.2218419,3.08559055 28.6888487,3.08559055 C29.1558555,3.08559055 29.5687456,2.87306775 29.852357,2.54425888 L201.147643,2.54425888 C201.431254,2.87306775 201.845147,3.08559055 202.312153,3.08559055 C202.77916,3.08559055 203.19205,2.87306775 203.476664,2.54425888 L217.032889,2.54425888 C217.070971,3.15877058 217.151144,3.73619103 217.255369,4.2895523 L208.491475,4.2895523 L207.493323,4.21135995 L207.493323,5.21382601 C207.488312,5.24189506 206.697608,8.0117088 196.084728,8.0117088 L34.916274,8.0117088 C24.3985996,8.0117088 23.5267199,5.29201837 23.5116875,5.29201837 L23.5116875,4.2895523 L13.7456334,4.2895523 C13.8498581,3.73619103 13.9290288,3.15877058 13.9671109,2.54425888 L13.9671109,2.54425888 Z M7.09329203,7.43328588 C7.81584975,6.66740181 8.79997137,6.29448443 10.1017779,6.29448443 L11.0127418,6.29448443 C9.81716428,8.8447581 7.71262722,10.3564769 5.73336023,11.2536841 C5.77745529,10.3424424 6.00695005,8.58311446 7.09329203,7.43328588 L7.09329203,7.43328588 Z M2.00532316,16.0153979 L2.00532316,14.4124546 C2.45429107,14.3382721 3.05057657,14.2139664 3.72302626,14.0355274 L3.72302626,17.7326223 L2.00532316,16.0153979 Z M2.00532316,85.5875454 L2.00532316,83.9846021 L3.72402842,82.2663753 L3.72603275,85.9654751 C3.05258089,85.7860336 2.45529323,85.6617279 2.00532316,85.5875454 L2.00532316,85.5875454 Z M10.1017779,93.7055156 C8.79997137,93.7055156 7.81584975,93.3325982 7.09329203,92.5667141 C6.01697165,91.4269102 5.78146394,89.6866291 5.73536455,88.7473184 C7.71463154,89.6445255 9.81816644,91.1572468 11.0127418,93.7055156 L10.1017779,93.7055156 Z M217.032889,97.4547387 L203.476664,97.4547387 C203.194055,97.1269323 202.780162,96.9144094 202.313156,96.9144094 C201.846149,96.9144094 201.431254,97.1269323 201.148645,97.4547387 L29.8533592,97.4547387 C29.5707499,97.1269323 29.1568576,96.9144094 28.6898508,96.9144094 C28.2228441,96.9144094 27.8079496,97.1269323 27.5253403,97.4547387 L13.9671109,97.4547387 C13.9290288,96.8412294 13.8498581,96.263809 13.7456334,95.7104477 L22.509527,95.7104477 L23.5086811,95.7886401 L23.5086811,94.786174 C23.5136919,94.7581049 24.3033943,91.9882912 34.916274,91.9882912 L196.084728,91.9882912 C206.602403,91.9882912 207.474282,94.7089841 207.490317,94.7089841 L207.490317,95.7104477 L217.255369,95.7104477 C217.151144,96.263809 217.070971,96.8412294 217.032889,97.4547387 L217.032889,97.4547387 Z M223.914725,92.5596969 C223.190163,93.3305933 222.204037,93.7055156 220.899224,93.7055156 L219.98826,93.7055156 C221.182836,91.1562444 223.288375,89.6435231 225.267642,88.7463159 C225.22054,89.6565551 224.988039,91.4168855 223.914725,92.5596969 L223.914725,92.5596969 Z M228.994677,85.5875454 C228.547713,85.6617279 227.950426,85.7860336 227.278978,85.9644726 L227.278978,82.2683802 L228.994677,83.9846021 L228.994677,85.5875454 Z" id="Fill-2957" stroke="none" fill="#000000" fill-rule="evenodd"></path>
                    <path d="M227.277976,20.5675963 L231,16.8454398 L231,12.6030034 L230.067991,12.5358382 C229.926686,12.5258135 228.781217,12.4315817 227.275972,11.993504 L227.275972,11.9714498 C227.285993,11.8220823 227.47941,8.30743629 225.375875,6.06692463 C224.267486,4.88702207 222.761239,4.2895523 220.899224,4.2895523 L219.307793,4.2895523 C219.116381,3.45850793 219.007145,2.54726628 219.007145,1.54179281 L219.007145,0.539326744 L203.476664,0.539326744 C203.19205,0.21152034 202.77916,0 202.312153,0 C201.845147,0 201.431254,0.21152034 201.147643,0.539326744 L29.852357,0.539326744 C29.5687456,0.21152034 29.1558555,0 28.6888487,0 C28.2218419,0 27.8079496,0.21152034 27.5243382,0.539326744 L11.9938569,0.539326744 L11.9938569,1.54179281 C11.9938569,2.54726628 11.8846214,3.45850793 11.6932087,4.2895523 L10.1017779,4.2895523 C8.23976365,4.2895523 6.73351641,4.88702207 5.6251269,6.06692463 C3.521592,8.30743629 3.71500898,11.8220823 3.72302626,11.9082944 L3.72302626,11.9945065 C2.21978551,12.4315817 1.07431606,12.5258135 0.933011427,12.5358382 L0,12.6030034 L0,16.8454398 L3.72302626,20.5675963 L3.72302626,79.4324037 L0,83.1545602 L0,87.3969966 L0.933011427,87.4641618 C1.07431606,87.4741865 2.22078767,87.5684183 3.72603275,88.006496 L3.72603275,88.0285502 C3.71601114,88.1779177 3.52259416,91.6925637 5.6251269,93.9330754 C6.73351641,95.1129779 8.23976365,95.7104477 10.1017779,95.7104477 L11.6932087,95.7104477 C11.8846214,96.5414921 11.9938569,97.4527337 11.9938569,98.4572047 L11.9938569,99.4596708 L27.5263425,99.4596708 C27.8079496,99.7884797 28.2228441,100 28.6898508,100 C29.1568576,100 29.5707499,99.7884797 29.852357,99.4596708 L201.149647,99.4596708 C201.431254,99.7884797 201.846149,100 202.313156,100 C202.780162,100 203.194055,99.7884797 203.476664,99.4596708 L219.007145,99.4596708 L219.007145,98.4572047 C219.007145,97.4527337 219.116381,96.5414921 219.307793,95.7104477 L220.899224,95.7104477 C222.761239,95.7104477 224.267486,95.1129779 225.376877,93.9330754 C227.47941,91.6925637 227.285993,88.1779177 227.278978,88.0917056 L227.278978,88.0054935 C228.781217,87.5684183 229.926686,87.4741865 230.067991,87.4641618 L231,87.3969966 L231,83.1545602 L227.277976,79.4324037 L227.277976,20.5675963 Z M225.275659,80.2634481 L225.275659,86.6200854 C222.52072,87.6997414 219.309798,89.778856 217.830609,93.7055156 L209.23107,93.7055156 C208.501497,92.2689817 205.811698,89.9833591 196.084728,89.9833591 L34.916274,89.9833591 C29.5867845,89.9833591 25.7605357,90.6580187 23.5437567,91.9872887 C22.5646459,92.5747338 22.0555483,93.1992702 21.790978,93.7055156 L13.1703933,93.7055156 C11.6912044,89.7808609 8.48228649,87.7017463 5.72734727,86.6210879 L5.72734727,79.8474247 L5.72734727,79.8474247 L5.72734727,19.7375544 L5.72734727,13.3789121 C8.48028217,12.2992562 11.6912044,10.2201415 13.1703933,6.29448443 L21.7899758,6.29448443 C22.0545462,6.8007298 22.5636437,7.42526615 23.5437567,8.01271127 C25.7595335,9.34198127 29.5867845,10.0166409 34.916274,10.0166409 L196.084728,10.0166409 C201.414218,10.0166409 205.241469,9.34198127 207.457245,8.01271127 C208.437358,7.42526615 208.946456,6.8007298 209.212029,6.29448443 L217.830609,6.29448443 C219.309798,10.2191391 222.518716,12.2982537 225.272653,13.3789121 L225.272653,19.7375544 L225.272653,20.1525753 L225.272653,80.2624456 L225.275659,80.2634481 Z M228.994677,14.4124546 L228.994677,16.0153979 L227.276974,17.7336247 L227.276974,14.0345249 C227.949423,14.2139664 228.546711,14.3382721 228.994677,14.4124546 Z M220.899224,6.29448443 C222.201031,6.29448443 223.185152,6.66740181 223.90771,7.43328588 C224.984031,8.5730898 225.219538,10.3133709 225.265638,11.2526816 C223.286371,10.3554745 221.181834,8.84275317 219.98826,6.29448443 L220.899224,6.29448443 Z M13.9671109,2.54425888 L27.5243382,2.54425888 C27.8079496,2.87306775 28.2218419,3.08559055 28.6888487,3.08559055 C29.1558555,3.08559055 29.5687456,2.87306775 29.852357,2.54425888 L201.147643,2.54425888 C201.431254,2.87306775 201.845147,3.08559055 202.312153,3.08559055 C202.77916,3.08559055 203.19205,2.87306775 203.476664,2.54425888 L217.032889,2.54425888 C217.070971,3.15877058 217.151144,3.73619103 217.255369,4.2895523 L208.491475,4.2895523 L207.493323,4.21135995 L207.493323,5.21382601 C207.488312,5.24189506 206.697608,8.0117088 196.084728,8.0117088 L34.916274,8.0117088 C24.3985996,8.0117088 23.5267199,5.29201837 23.5116875,5.29201837 L23.5116875,4.2895523 L13.7456334,4.2895523 C13.8498581,3.73619103 13.9290288,3.15877058 13.9671109,2.54425888 Z M7.09329203,7.43328588 C7.81584975,6.66740181 8.79997137,6.29448443 10.1017779,6.29448443 L11.0127418,6.29448443 C9.81716428,8.8447581 7.71262722,10.3564769 5.73336023,11.2536841 C5.77745529,10.3424424 6.00695005,8.58311446 7.09329203,7.43328588 Z M2.00532316,16.0153979 L2.00532316,14.4124546 C2.45429107,14.3382721 3.05057657,14.2139664 3.72302626,14.0355274 L3.72302626,17.7326223 L2.00532316,16.0153979 Z M2.00532316,85.5875454 L2.00532316,83.9846021 L3.72402842,82.2663753 L3.72603275,85.9654751 C3.05258089,85.7860336 2.45529323,85.6617279 2.00532316,85.5875454 Z M10.1017779,93.7055156 C8.79997137,93.7055156 7.81584975,93.3325982 7.09329203,92.5667141 C6.01697165,91.4269102 5.78146394,89.6866291 5.73536455,88.7473184 C7.71463154,89.6445255 9.81816644,91.1572468 11.0127418,93.7055156 L10.1017779,93.7055156 Z M217.032889,97.4547387 L203.476664,97.4547387 C203.194055,97.1269323 202.780162,96.9144094 202.313156,96.9144094 C201.846149,96.9144094 201.431254,97.1269323 201.148645,97.4547387 L29.8533592,97.4547387 C29.5707499,97.1269323 29.1568576,96.9144094 28.6898508,96.9144094 C28.2228441,96.9144094 27.8079496,97.1269323 27.5253403,97.4547387 L13.9671109,97.4547387 C13.9290288,96.8412294 13.8498581,96.263809 13.7456334,95.7104477 L22.509527,95.7104477 L23.5086811,95.7886401 L23.5086811,94.786174 C23.5136919,94.7581049 24.3033943,91.9882912 34.916274,91.9882912 L196.084728,91.9882912 C206.602403,91.9882912 207.474282,94.7089841 207.490317,94.7089841 L207.490317,95.7104477 L217.255369,95.7104477 C217.151144,96.263809 217.070971,96.8412294 217.032889,97.4547387 Z M223.914725,92.5596969 C223.190163,93.3305933 222.204037,93.7055156 220.899224,93.7055156 L219.98826,93.7055156 C221.182836,91.1562444 223.288375,89.6435231 225.267642,88.7463159 C225.22054,89.6565551 224.988039,91.4168855 223.914725,92.5596969 Z M228.994677,85.5875454 C228.547713,85.6617279 227.950426,85.7860336 227.278978,85.9644726 L227.278978,82.2683802 L228.994677,83.9846021 L228.994677,85.5875454 Z" id="Stroke-2959" stroke="#DEB400" stroke-width="0.5" fill="none"></path>
                </g>
            </g>
        </g>
        <g id="Bottom-Left" transform="translate(0.000000, 36.000000)">
            <mask id="mask-4" fill="white">
                <use xlink:href="#path-3"></use>
            </mask>
            <g id="Rectangle"></g>
            <g id="Group-2961" mask="url(#mask-4)">
                <g transform="translate(1.000000, -65.000000)">
                    <polygon id="Rectangle" stroke="none" fill="#595959" fill-rule="evenodd" transform="translate(20.000000, 90.299966) scale(1, -1) translate(-20.000000, -90.299966) " points="9.91667911 90.2999663 12.7384493 86 23.0762231 86 28.417033 89.0252258 35 89.6907014 35 94.5999326 5 94.5999326"></polygon>
                    <path d="M226,12.3112322 L226,86.6897679 L225.524083,86.8777996 C223.106422,87.8279598 219.928296,89.7512839 218.514571,93.5139181 L218.33222,94 L208.75075,94 L208.541347,93.5909311 C208.033367,92.5987638 205.801064,90.2893746 196.070307,90.2893746 L34.9397118,90.2893746 C29.7396883,90.2893746 26.0425617,90.926482 23.951531,92.1826937 C23.2642061,92.5917627 22.7532211,93.0838456 22.4706765,93.6059336 L22.2572651,94 L12.6677804,94 L12.484427,93.5139181 C11.0636884,89.7422824 7.88956994,87.8229589 5.47691931,86.8777996 L5,86.6897679 L5,12.3112322 L5.47691931,12.1242007 C7.89257573,11.1770411 11.068698,9.25771759 12.484427,5.48708209 L12.6677804,5 L22.2622748,5 L22.4736823,5.40006743 C22.7532211,5.92615609 23.2501791,6.40723717 23.951531,6.82830814 C26.0465694,8.07751868 29.743696,8.71062539 34.9397118,8.71062539 L196.070307,8.71062539 C201.25931,8.71062539 204.953431,8.07751868 207.050473,6.82730797 C207.940188,6.29221779 208.34096,5.76112828 208.521308,5.41006911 L208.72971,5 L218.33222,5 L218.514571,5.48708209 C219.931302,9.25771759 223.107424,11.1770411 225.523081,12.1242007 L226,12.3112322 Z" id="Fill-2955" stroke="none" fill-opacity="0" fill="#FFFFFF" fill-rule="evenodd"></path>
                    <path d="M227.277976,20.5675963 L231,16.8454398 L231,12.6030034 L230.067991,12.5358382 C229.926686,12.5258135 228.781217,12.4315817 227.275972,11.993504 C227.285993,11.8220823 227.47941,8.30743629 225.375875,6.06692463 C224.267486,4.88702207 222.761239,4.2895523 220.899224,4.2895523 L219.307793,4.2895523 C219.116381,3.45850793 219.007145,2.54726628 219.007145,1.54179281 L219.007145,0.539326744 L203.476664,0.539326744 C203.19205,0.21152034 202.77916,0 202.312153,0 C201.845147,0 201.431254,0.21152034 201.147643,0.539326744 L29.852357,0.539326744 C29.5687456,0.21152034 29.1558555,0 28.6888487,0 C28.2218419,0 27.8079496,0.21152034 27.5243382,0.539326744 L11.9938569,0.539326744 L11.9938569,1.54179281 C11.9938569,2.54726628 11.8846214,3.45850793 11.6932087,4.2895523 L10.1017779,4.2895523 C8.23976365,4.2895523 6.73351641,4.88702207 5.6251269,6.06692463 C3.521592,8.30743629 3.71500898,11.8220823 3.72302626,11.9082944 C2.21978551,12.4315817 1.07431606,12.5258135 0.933011427,12.5358382 L0,12.6030034 L0,16.8454398 L3.72302626,20.5675963 L3.72302626,32.8483935 L3.72302626,66.903132 L3.72302626,79.4324037 L0,83.1545602 L0,87.3969966 L0.933011427,87.4641618 C1.07431606,87.4741865 2.22078767,87.5684183 3.72603275,88.006496 C3.71601114,88.1779177 3.52259416,91.6925637 5.6251269,93.9330754 C6.73351641,95.1129779 8.23976365,95.7104477 10.1017779,95.7104477 L11.6932087,95.7104477 C11.8846214,96.5414921 11.9938569,97.4527337 11.9938569,98.4572047 L11.9938569,99.4596708 L27.5263425,99.4596708 C27.8079496,99.7884797 28.2228441,100 28.6898508,100 C29.1568576,100 29.5707499,99.7884797 29.852357,99.4596708 L201.149647,99.4596708 C201.431254,99.7884797 201.846149,100 202.313156,100 C202.780162,100 203.194055,99.7884797 203.476664,99.4596708 L219.007145,99.4596708 L219.007145,98.4572047 C219.007145,97.4527337 219.116381,96.5414921 219.307793,95.7104477 L220.899224,95.7104477 C222.761239,95.7104477 224.267486,95.1129779 225.376877,93.9330754 C227.47941,91.6925637 227.285993,88.1779177 227.278978,88.0917056 C228.781217,87.5684183 229.926686,87.4741865 230.067991,87.4641618 L231,87.3969966 L231,83.1545602 L227.277976,79.4324037 L227.277976,20.5675963 Z M225.275659,80.2634481 L225.275659,86.6200854 C222.52072,87.6997414 219.309798,89.778856 217.830609,93.7055156 L209.23107,93.7055156 C208.501497,92.2689817 205.811698,89.9833591 196.084728,89.9833591 L34.916274,89.9833591 C29.5867845,89.9833591 25.7605357,90.6580187 23.5437567,91.9872887 C22.5646459,92.5747338 22.0555483,93.1992702 21.790978,93.7055156 L13.1703933,93.7055156 C11.6912044,89.7808609 8.48228649,87.7017463 5.72734727,86.6210879 L5.72734727,79.8474247 L5.72734727,79.8474247 L5.72734727,19.7375544 L5.72734727,13.3789121 C8.48028217,12.2992562 11.6912044,10.2201415 13.1703933,6.29448443 L21.7899758,6.29448443 C22.0545462,6.8007298 22.5636437,7.42526615 23.5437567,8.01271127 C25.7595335,9.34198127 29.5867845,10.0166409 34.916274,10.0166409 L196.084728,10.0166409 C201.414218,10.0166409 205.241469,9.34198127 207.457245,8.01271127 C208.437358,7.42526615 208.946456,6.8007298 209.212029,6.29448443 L217.830609,6.29448443 C219.309798,10.2191391 222.518716,12.2982537 225.272653,13.3789121 L225.272653,19.7375544 L225.272653,20.1525753 L225.272653,80.2624456 L225.275659,80.2634481 Z M228.994677,14.4124546 L228.994677,16.0153979 L227.276974,17.7336247 L227.276974,14.0345249 C227.949423,14.2139664 228.546711,14.3382721 228.994677,14.4124546 L228.994677,14.4124546 Z M220.899224,6.29448443 C222.201031,6.29448443 223.185152,6.66740181 223.90771,7.43328588 C224.984031,8.5730898 225.219538,10.3133709 225.265638,11.2526816 C223.286371,10.3554745 221.181834,8.84275317 219.98826,6.29448443 L220.899224,6.29448443 Z M13.9671109,2.54425888 L27.5243382,2.54425888 C27.8079496,2.87306775 28.2218419,3.08559055 28.6888487,3.08559055 C29.1558555,3.08559055 29.5687456,2.87306775 29.852357,2.54425888 L201.147643,2.54425888 C201.431254,2.87306775 201.845147,3.08559055 202.312153,3.08559055 C202.77916,3.08559055 203.19205,2.87306775 203.476664,2.54425888 L217.032889,2.54425888 C217.070971,3.15877058 217.151144,3.73619103 217.255369,4.2895523 L208.491475,4.2895523 L207.493323,4.21135995 L207.493323,5.21382601 C207.488312,5.24189506 206.697608,8.0117088 196.084728,8.0117088 L34.916274,8.0117088 C24.3985996,8.0117088 23.5267199,5.29201837 23.5116875,5.29201837 L23.5116875,4.2895523 L13.7456334,4.2895523 C13.8498581,3.73619103 13.9290288,3.15877058 13.9671109,2.54425888 L13.9671109,2.54425888 Z M7.09329203,7.43328588 C7.81584975,6.66740181 8.79997137,6.29448443 10.1017779,6.29448443 L11.0127418,6.29448443 C9.81716428,8.8447581 7.71262722,10.3564769 5.73336023,11.2536841 C5.77745529,10.3424424 6.00695005,8.58311446 7.09329203,7.43328588 L7.09329203,7.43328588 Z M2.00532316,16.0153979 L2.00532316,14.4124546 C2.45429107,14.3382721 3.05057657,14.2139664 3.72302626,14.0355274 L3.72302626,17.7326223 L2.00532316,16.0153979 Z M2.00532316,85.5875454 L2.00532316,83.9846021 L3.72402842,82.2663753 L3.72603275,85.9654751 C3.05258089,85.7860336 2.45529323,85.6617279 2.00532316,85.5875454 L2.00532316,85.5875454 Z M10.1017779,93.7055156 C8.79997137,93.7055156 7.81584975,93.3325982 7.09329203,92.5667141 C6.01697165,91.4269102 5.78146394,89.6866291 5.73536455,88.7473184 C7.71463154,89.6445255 9.81816644,91.1572468 11.0127418,93.7055156 L10.1017779,93.7055156 Z M217.032889,97.4547387 L203.476664,97.4547387 C203.194055,97.1269323 202.780162,96.9144094 202.313156,96.9144094 C201.846149,96.9144094 201.431254,97.1269323 201.148645,97.4547387 L29.8533592,97.4547387 C29.5707499,97.1269323 29.1568576,96.9144094 28.6898508,96.9144094 C28.2228441,96.9144094 27.8079496,97.1269323 27.5253403,97.4547387 L13.9671109,97.4547387 C13.9290288,96.8412294 13.8498581,96.263809 13.7456334,95.7104477 L22.509527,95.7104477 L23.5086811,95.7886401 L23.5086811,94.786174 C23.5136919,94.7581049 24.3033943,91.9882912 34.916274,91.9882912 L196.084728,91.9882912 C206.602403,91.9882912 207.474282,94.7089841 207.490317,94.7089841 L207.490317,95.7104477 L217.255369,95.7104477 C217.151144,96.263809 217.070971,96.8412294 217.032889,97.4547387 L217.032889,97.4547387 Z M223.914725,92.5596969 C223.190163,93.3305933 222.204037,93.7055156 220.899224,93.7055156 L219.98826,93.7055156 C221.182836,91.1562444 223.288375,89.6435231 225.267642,88.7463159 C225.22054,89.6565551 224.988039,91.4168855 223.914725,92.5596969 L223.914725,92.5596969 Z M228.994677,85.5875454 C228.547713,85.6617279 227.950426,85.7860336 227.278978,85.9644726 L227.278978,82.2683802 L228.994677,83.9846021 L228.994677,85.5875454 Z" id="Fill-2957" stroke="none" fill="#000000" fill-rule="evenodd"></path>
                    <path d="M227.277976,20.5675963 L231,16.8454398 L231,12.6030034 L230.067991,12.5358382 C229.926686,12.5258135 228.781217,12.4315817 227.275972,11.993504 L227.275972,11.9714498 C227.285993,11.8220823 227.47941,8.30743629 225.375875,6.06692463 C224.267486,4.88702207 222.761239,4.2895523 220.899224,4.2895523 L219.307793,4.2895523 C219.116381,3.45850793 219.007145,2.54726628 219.007145,1.54179281 L219.007145,0.539326744 L203.476664,0.539326744 C203.19205,0.21152034 202.77916,0 202.312153,0 C201.845147,0 201.431254,0.21152034 201.147643,0.539326744 L29.852357,0.539326744 C29.5687456,0.21152034 29.1558555,0 28.6888487,0 C28.2218419,0 27.8079496,0.21152034 27.5243382,0.539326744 L11.9938569,0.539326744 L11.9938569,1.54179281 C11.9938569,2.54726628 11.8846214,3.45850793 11.6932087,4.2895523 L10.1017779,4.2895523 C8.23976365,4.2895523 6.73351641,4.88702207 5.6251269,6.06692463 C3.521592,8.30743629 3.71500898,11.8220823 3.72302626,11.9082944 L3.72302626,11.9945065 C2.21978551,12.4315817 1.07431606,12.5258135 0.933011427,12.5358382 L0,12.6030034 L0,16.8454398 L3.72302626,20.5675963 L3.72302626,79.4324037 L0,83.1545602 L0,87.3969966 L0.933011427,87.4641618 C1.07431606,87.4741865 2.22078767,87.5684183 3.72603275,88.006496 L3.72603275,88.0285502 C3.71601114,88.1779177 3.52259416,91.6925637 5.6251269,93.9330754 C6.73351641,95.1129779 8.23976365,95.7104477 10.1017779,95.7104477 L11.6932087,95.7104477 C11.8846214,96.5414921 11.9938569,97.4527337 11.9938569,98.4572047 L11.9938569,99.4596708 L27.5263425,99.4596708 C27.8079496,99.7884797 28.2228441,100 28.6898508,100 C29.1568576,100 29.5707499,99.7884797 29.852357,99.4596708 L201.149647,99.4596708 C201.431254,99.7884797 201.846149,100 202.313156,100 C202.780162,100 203.194055,99.7884797 203.476664,99.4596708 L219.007145,99.4596708 L219.007145,98.4572047 C219.007145,97.4527337 219.116381,96.5414921 219.307793,95.7104477 L220.899224,95.7104477 C222.761239,95.7104477 224.267486,95.1129779 225.376877,93.9330754 C227.47941,91.6925637 227.285993,88.1779177 227.278978,88.0917056 L227.278978,88.0054935 C228.781217,87.5684183 229.926686,87.4741865 230.067991,87.4641618 L231,87.3969966 L231,83.1545602 L227.277976,79.4324037 L227.277976,20.5675963 Z M225.275659,80.2634481 L225.275659,86.6200854 C222.52072,87.6997414 219.309798,89.778856 217.830609,93.7055156 L209.23107,93.7055156 C208.501497,92.2689817 205.811698,89.9833591 196.084728,89.9833591 L34.916274,89.9833591 C29.5867845,89.9833591 25.7605357,90.6580187 23.5437567,91.9872887 C22.5646459,92.5747338 22.0555483,93.1992702 21.790978,93.7055156 L13.1703933,93.7055156 C11.6912044,89.7808609 8.48228649,87.7017463 5.72734727,86.6210879 L5.72734727,79.8474247 L5.72734727,79.8474247 L5.72734727,19.7375544 L5.72734727,13.3789121 C8.48028217,12.2992562 11.6912044,10.2201415 13.1703933,6.29448443 L21.7899758,6.29448443 C22.0545462,6.8007298 22.5636437,7.42526615 23.5437567,8.01271127 C25.7595335,9.34198127 29.5867845,10.0166409 34.916274,10.0166409 L196.084728,10.0166409 C201.414218,10.0166409 205.241469,9.34198127 207.457245,8.01271127 C208.437358,7.42526615 208.946456,6.8007298 209.212029,6.29448443 L217.830609,6.29448443 C219.309798,10.2191391 222.518716,12.2982537 225.272653,13.3789121 L225.272653,19.7375544 L225.272653,20.1525753 L225.272653,80.2624456 L225.275659,80.2634481 Z M228.994677,14.4124546 L228.994677,16.0153979 L227.276974,17.7336247 L227.276974,14.0345249 C227.949423,14.2139664 228.546711,14.3382721 228.994677,14.4124546 Z M220.899224,6.29448443 C222.201031,6.29448443 223.185152,6.66740181 223.90771,7.43328588 C224.984031,8.5730898 225.219538,10.3133709 225.265638,11.2526816 C223.286371,10.3554745 221.181834,8.84275317 219.98826,6.29448443 L220.899224,6.29448443 Z M13.9671109,2.54425888 L27.5243382,2.54425888 C27.8079496,2.87306775 28.2218419,3.08559055 28.6888487,3.08559055 C29.1558555,3.08559055 29.5687456,2.87306775 29.852357,2.54425888 L201.147643,2.54425888 C201.431254,2.87306775 201.845147,3.08559055 202.312153,3.08559055 C202.77916,3.08559055 203.19205,2.87306775 203.476664,2.54425888 L217.032889,2.54425888 C217.070971,3.15877058 217.151144,3.73619103 217.255369,4.2895523 L208.491475,4.2895523 L207.493323,4.21135995 L207.493323,5.21382601 C207.488312,5.24189506 206.697608,8.0117088 196.084728,8.0117088 L34.916274,8.0117088 C24.3985996,8.0117088 23.5267199,5.29201837 23.5116875,5.29201837 L23.5116875,4.2895523 L13.7456334,4.2895523 C13.8498581,3.73619103 13.9290288,3.15877058 13.9671109,2.54425888 Z M7.09329203,7.43328588 C7.81584975,6.66740181 8.79997137,6.29448443 10.1017779,6.29448443 L11.0127418,6.29448443 C9.81716428,8.8447581 7.71262722,10.3564769 5.73336023,11.2536841 C5.77745529,10.3424424 6.00695005,8.58311446 7.09329203,7.43328588 Z M2.00532316,16.0153979 L2.00532316,14.4124546 C2.45429107,14.3382721 3.05057657,14.2139664 3.72302626,14.0355274 L3.72302626,17.7326223 L2.00532316,16.0153979 Z M2.00532316,85.5875454 L2.00532316,83.9846021 L3.72402842,82.2663753 L3.72603275,85.9654751 C3.05258089,85.7860336 2.45529323,85.6617279 2.00532316,85.5875454 Z M10.1017779,93.7055156 C8.79997137,93.7055156 7.81584975,93.3325982 7.09329203,92.5667141 C6.01697165,91.4269102 5.78146394,89.6866291 5.73536455,88.7473184 C7.71463154,89.6445255 9.81816644,91.1572468 11.0127418,93.7055156 L10.1017779,93.7055156 Z M217.032889,97.4547387 L203.476664,97.4547387 C203.194055,97.1269323 202.780162,96.9144094 202.313156,96.9144094 C201.846149,96.9144094 201.431254,97.1269323 201.148645,97.4547387 L29.8533592,97.4547387 C29.5707499,97.1269323 29.1568576,96.9144094 28.6898508,96.9144094 C28.2228441,96.9144094 27.8079496,97.1269323 27.5253403,97.4547387 L13.9671109,97.4547387 C13.9290288,96.8412294 13.8498581,96.263809 13.7456334,95.7104477 L22.509527,95.7104477 L23.5086811,95.7886401 L23.5086811,94.786174 C23.5136919,94.7581049 24.3033943,91.9882912 34.916274,91.9882912 L196.084728,91.9882912 C206.602403,91.9882912 207.474282,94.7089841 207.490317,94.7089841 L207.490317,95.7104477 L217.255369,95.7104477 C217.151144,96.263809 217.070971,96.8412294 217.032889,97.4547387 Z M223.914725,92.5596969 C223.190163,93.3305933 222.204037,93.7055156 220.899224,93.7055156 L219.98826,93.7055156 C221.182836,91.1562444 223.288375,89.6435231 225.267642,88.7463159 C225.22054,89.6565551 224.988039,91.4168855 223.914725,92.5596969 Z M228.994677,85.5875454 C228.547713,85.6617279 227.950426,85.7860336 227.278978,85.9644726 L227.278978,82.2683802 L228.994677,83.9846021 L228.994677,85.5875454 Z" id="Stroke-2959" stroke="#DEB400" stroke-width="0.5" fill="none"></path>
                </g>
            </g>
        </g>
        <g id="Top-Right" transform="translate(36.000000, 0.000000)">
            <mask id="mask-6" fill="white">
                <use xlink:href="#path-5"></use>
            </mask>
            <g id="Rectangle"></g>
            <g id="Group-2961" mask="url(#mask-6)">
                <g transform="translate(-196.000000, -6.000000)">
                    <path d="M246,7.31123223 L246,81.6897679 L245.524083,81.8777996 C243.106422,82.8279598 239.928296,84.7512839 238.514571,88.5139181 L238.33222,89 L228.75075,89 L228.541347,88.5909311 C228.033367,87.5987638 225.801064,85.2893746 216.070307,85.2893746 L54.9397118,85.2893746 C49.7396883,85.2893746 46.0425617,85.926482 43.951531,87.1826937 C43.2642061,87.5917627 42.7532211,88.0838456 42.4706765,88.6059336 L42.2572651,89 L32.6677804,89 L32.484427,88.5139181 C31.0636884,84.7422824 27.8895699,82.8229589 25.4769193,81.8777996 L25,81.6897679 L25,7.31123223 L25.4769193,7.12420071 C27.8925757,6.17704107 31.068698,4.25771759 32.484427,0.487082092 L32.6677804,0 L42.2622748,0 L42.4736823,0.400067427 C42.7532211,0.926156094 43.2501791,1.40723717 43.951531,1.82830814 C46.0465694,3.07751868 49.743696,3.71062539 54.9397118,3.71062539 L216.070307,3.71062539 C221.25931,3.71062539 224.953431,3.07751868 227.050473,1.82730797 C227.940188,1.29221779 228.34096,0.76112828 228.521308,0.410069113 L228.72971,0 L238.33222,0 L238.514571,0.487082092 C239.931302,4.25771759 243.107424,6.17704107 245.523081,7.12420071 L246,7.31123223 Z" id="Fill-2955" stroke="none" fill-opacity="0" fill="#FFFFFF" fill-rule="evenodd"></path>
                    <polygon id="Rectangle" stroke="none" fill="#595959" fill-rule="evenodd" transform="translate(210.500000, 16.500000) scale(-1, 1) translate(-210.500000, -16.500000) " points="200.080568 16.5 202.996398 12 212.322898 12.0000706 219.197601 15.1659588 226 15.8623923 226 21 195 21"></polygon>
                    <path d="M227.277976,27.5675963 L231,23.8454398 L231,19.6030034 L230.067991,19.5358382 C229.926686,19.5258135 228.781217,19.4315817 227.275972,18.993504 C227.285993,18.8220823 227.47941,15.3074363 225.375875,13.0669246 C224.267486,11.8870221 222.761239,11.2895523 220.899224,11.2895523 L219.307793,11.2895523 C219.116381,10.4585079 219.007145,9.54726628 219.007145,8.54179281 L219.007145,7.53932674 L203.476664,7.53932674 C203.19205,7.21152034 202.77916,7 202.312153,7 C201.845147,7 201.431254,7.21152034 201.147643,7.53932674 L29.852357,7.53932674 C29.5687456,7.21152034 29.1558555,7 28.6888487,7 C28.2218419,7 27.8079496,7.21152034 27.5243382,7.53932674 L11.9938569,7.53932674 L11.9938569,8.54179281 C11.9938569,9.54726628 11.8846214,10.4585079 11.6932087,11.2895523 L10.1017779,11.2895523 C8.23976365,11.2895523 6.73351641,11.8870221 5.6251269,13.0669246 C3.521592,15.3074363 3.71500898,18.8220823 3.72302626,18.9082944 C2.21978551,19.4315817 1.07431606,19.5258135 0.933011427,19.5358382 L0,19.6030034 L0,23.8454398 L3.72302626,27.5675963 L3.72302626,39.8483935 L3.72302626,73.903132 L3.72302626,86.4324037 L0,90.1545602 L0,94.3969966 L0.933011427,94.4641618 C1.07431606,94.4741865 2.22078767,94.5684183 3.72603275,95.006496 C3.71601114,95.1779177 3.52259416,98.6925637 5.6251269,100.933075 C6.73351641,102.112978 8.23976365,102.710448 10.1017779,102.710448 L11.6932087,102.710448 C11.8846214,103.541492 11.9938569,104.452734 11.9938569,105.457205 L11.9938569,106.459671 L27.5263425,106.459671 C27.8079496,106.78848 28.2228441,107 28.6898508,107 C29.1568576,107 29.5707499,106.78848 29.852357,106.459671 L201.149647,106.459671 C201.431254,106.78848 201.846149,107 202.313156,107 C202.780162,107 203.194055,106.78848 203.476664,106.459671 L219.007145,106.459671 L219.007145,105.457205 C219.007145,104.452734 219.116381,103.541492 219.307793,102.710448 L220.899224,102.710448 C222.761239,102.710448 224.267486,102.112978 225.376877,100.933075 C227.47941,98.6925637 227.285993,95.1779177 227.278978,95.0917056 C228.781217,94.5684183 229.926686,94.4741865 230.067991,94.4641618 L231,94.3969966 L231,90.1545602 L227.277976,86.4324037 L227.277976,27.5675963 Z M225.275659,87.2634481 L225.275659,93.6200854 C222.52072,94.6997414 219.309798,96.778856 217.830609,100.705516 L209.23107,100.705516 C208.501497,99.2689817 205.811698,96.9833591 196.084728,96.9833591 L34.916274,96.9833591 C29.5867845,96.9833591 25.7605357,97.6580187 23.5437567,98.9872887 C22.5646459,99.5747338 22.0555483,100.19927 21.790978,100.705516 L13.1703933,100.705516 C11.6912044,96.7808609 8.48228649,94.7017463 5.72734727,93.6210879 L5.72734727,86.8474247 L5.72734727,86.8474247 L5.72734727,26.7375544 L5.72734727,20.3789121 C8.48028217,19.2992562 11.6912044,17.2201415 13.1703933,13.2944844 L21.7899758,13.2944844 C22.0545462,13.8007298 22.5636437,14.4252662 23.5437567,15.0127113 C25.7595335,16.3419813 29.5867845,17.0166409 34.916274,17.0166409 L196.084728,17.0166409 C201.414218,17.0166409 205.241469,16.3419813 207.457245,15.0127113 C208.437358,14.4252662 208.946456,13.8007298 209.212029,13.2944844 L217.830609,13.2944844 C219.309798,17.2191391 222.518716,19.2982537 225.272653,20.3789121 L225.272653,26.7375544 L225.272653,27.1525753 L225.272653,87.2624456 L225.275659,87.2634481 Z M228.994677,21.4124546 L228.994677,23.0153979 L227.276974,24.7336247 L227.276974,21.0345249 C227.949423,21.2139664 228.546711,21.3382721 228.994677,21.4124546 L228.994677,21.4124546 Z M220.899224,13.2944844 C222.201031,13.2944844 223.185152,13.6674018 223.90771,14.4332859 C224.984031,15.5730898 225.219538,17.3133709 225.265638,18.2526816 C223.286371,17.3554745 221.181834,15.8427532 219.98826,13.2944844 L220.899224,13.2944844 Z M13.9671109,9.54425888 L27.5243382,9.54425888 C27.8079496,9.87306775 28.2218419,10.0855906 28.6888487,10.0855906 C29.1558555,10.0855906 29.5687456,9.87306775 29.852357,9.54425888 L201.147643,9.54425888 C201.431254,9.87306775 201.845147,10.0855906 202.312153,10.0855906 C202.77916,10.0855906 203.19205,9.87306775 203.476664,9.54425888 L217.032889,9.54425888 C217.070971,10.1587706 217.151144,10.736191 217.255369,11.2895523 L208.491475,11.2895523 L207.493323,11.2113599 L207.493323,12.213826 C207.488312,12.2418951 206.697608,15.0117088 196.084728,15.0117088 L34.916274,15.0117088 C24.3985996,15.0117088 23.5267199,12.2920184 23.5116875,12.2920184 L23.5116875,11.2895523 L13.7456334,11.2895523 C13.8498581,10.736191 13.9290288,10.1587706 13.9671109,9.54425888 L13.9671109,9.54425888 Z M7.09329203,14.4332859 C7.81584975,13.6674018 8.79997137,13.2944844 10.1017779,13.2944844 L11.0127418,13.2944844 C9.81716428,15.8447581 7.71262722,17.3564769 5.73336023,18.2536841 C5.77745529,17.3424424 6.00695005,15.5831145 7.09329203,14.4332859 L7.09329203,14.4332859 Z M2.00532316,23.0153979 L2.00532316,21.4124546 C2.45429107,21.3382721 3.05057657,21.2139664 3.72302626,21.0355274 L3.72302626,24.7326223 L2.00532316,23.0153979 Z M2.00532316,92.5875454 L2.00532316,90.9846021 L3.72402842,89.2663753 L3.72603275,92.9654751 C3.05258089,92.7860336 2.45529323,92.6617279 2.00532316,92.5875454 L2.00532316,92.5875454 Z M10.1017779,100.705516 C8.79997137,100.705516 7.81584975,100.332598 7.09329203,99.5667141 C6.01697165,98.4269102 5.78146394,96.6866291 5.73536455,95.7473184 C7.71463154,96.6445255 9.81816644,98.1572468 11.0127418,100.705516 L10.1017779,100.705516 Z M217.032889,104.454739 L203.476664,104.454739 C203.194055,104.126932 202.780162,103.914409 202.313156,103.914409 C201.846149,103.914409 201.431254,104.126932 201.148645,104.454739 L29.8533592,104.454739 C29.5707499,104.126932 29.1568576,103.914409 28.6898508,103.914409 C28.2228441,103.914409 27.8079496,104.126932 27.5253403,104.454739 L13.9671109,104.454739 C13.9290288,103.841229 13.8498581,103.263809 13.7456334,102.710448 L22.509527,102.710448 L23.5086811,102.78864 L23.5086811,101.786174 C23.5136919,101.758105 24.3033943,98.9882912 34.916274,98.9882912 L196.084728,98.9882912 C206.602403,98.9882912 207.474282,101.708984 207.490317,101.708984 L207.490317,102.710448 L217.255369,102.710448 C217.151144,103.263809 217.070971,103.841229 217.032889,104.454739 L217.032889,104.454739 Z M223.914725,99.5596969 C223.190163,100.330593 222.204037,100.705516 220.899224,100.705516 L219.98826,100.705516 C221.182836,98.1562444 223.288375,96.6435231 225.267642,95.7463159 C225.22054,96.6565551 224.988039,98.4168855 223.914725,99.5596969 L223.914725,99.5596969 Z M228.994677,92.5875454 C228.547713,92.6617279 227.950426,92.7860336 227.278978,92.9644726 L227.278978,89.2683802 L228.994677,90.9846021 L228.994677,92.5875454 Z" id="Fill-2957" stroke="none" fill="#000000" fill-rule="evenodd"></path>
                    <path d="M227.277976,27.5675963 L231,23.8454398 L231,19.6030034 L230.067991,19.5358382 C229.926686,19.5258135 228.781217,19.4315817 227.275972,18.993504 L227.275972,18.9714498 C227.285993,18.8220823 227.47941,15.3074363 225.375875,13.0669246 C224.267486,11.8870221 222.761239,11.2895523 220.899224,11.2895523 L219.307793,11.2895523 C219.116381,10.4585079 219.007145,9.54726628 219.007145,8.54179281 L219.007145,7.53932674 L203.476664,7.53932674 C203.19205,7.21152034 202.77916,7 202.312153,7 C201.845147,7 201.431254,7.21152034 201.147643,7.53932674 L29.852357,7.53932674 C29.5687456,7.21152034 29.1558555,7 28.6888487,7 C28.2218419,7 27.8079496,7.21152034 27.5243382,7.53932674 L11.9938569,7.53932674 L11.9938569,8.54179281 C11.9938569,9.54726628 11.8846214,10.4585079 11.6932087,11.2895523 L10.1017779,11.2895523 C8.23976365,11.2895523 6.73351641,11.8870221 5.6251269,13.0669246 C3.521592,15.3074363 3.71500898,18.8220823 3.72302626,18.9082944 L3.72302626,18.9945065 C2.21978551,19.4315817 1.07431606,19.5258135 0.933011427,19.5358382 L0,19.6030034 L0,23.8454398 L3.72302626,27.5675963 L3.72302626,86.4324037 L0,90.1545602 L0,94.3969966 L0.933011427,94.4641618 C1.07431606,94.4741865 2.22078767,94.5684183 3.72603275,95.006496 L3.72603275,95.0285502 C3.71601114,95.1779177 3.52259416,98.6925637 5.6251269,100.933075 C6.73351641,102.112978 8.23976365,102.710448 10.1017779,102.710448 L11.6932087,102.710448 C11.8846214,103.541492 11.9938569,104.452734 11.9938569,105.457205 L11.9938569,106.459671 L27.5263425,106.459671 C27.8079496,106.78848 28.2228441,107 28.6898508,107 C29.1568576,107 29.5707499,106.78848 29.852357,106.459671 L201.149647,106.459671 C201.431254,106.78848 201.846149,107 202.313156,107 C202.780162,107 203.194055,106.78848 203.476664,106.459671 L219.007145,106.459671 L219.007145,105.457205 C219.007145,104.452734 219.116381,103.541492 219.307793,102.710448 L220.899224,102.710448 C222.761239,102.710448 224.267486,102.112978 225.376877,100.933075 C227.47941,98.6925637 227.285993,95.1779177 227.278978,95.0917056 L227.278978,95.0054935 C228.781217,94.5684183 229.926686,94.4741865 230.067991,94.4641618 L231,94.3969966 L231,90.1545602 L227.277976,86.4324037 L227.277976,27.5675963 Z M225.275659,87.2634481 L225.275659,93.6200854 C222.52072,94.6997414 219.309798,96.778856 217.830609,100.705516 L209.23107,100.705516 C208.501497,99.2689817 205.811698,96.9833591 196.084728,96.9833591 L34.916274,96.9833591 C29.5867845,96.9833591 25.7605357,97.6580187 23.5437567,98.9872887 C22.5646459,99.5747338 22.0555483,100.19927 21.790978,100.705516 L13.1703933,100.705516 C11.6912044,96.7808609 8.48228649,94.7017463 5.72734727,93.6210879 L5.72734727,86.8474247 L5.72734727,86.8474247 L5.72734727,26.7375544 L5.72734727,20.3789121 C8.48028217,19.2992562 11.6912044,17.2201415 13.1703933,13.2944844 L21.7899758,13.2944844 C22.0545462,13.8007298 22.5636437,14.4252662 23.5437567,15.0127113 C25.7595335,16.3419813 29.5867845,17.0166409 34.916274,17.0166409 L196.084728,17.0166409 C201.414218,17.0166409 205.241469,16.3419813 207.457245,15.0127113 C208.437358,14.4252662 208.946456,13.8007298 209.212029,13.2944844 L217.830609,13.2944844 C219.309798,17.2191391 222.518716,19.2982537 225.272653,20.3789121 L225.272653,26.7375544 L225.272653,27.1525753 L225.272653,87.2624456 L225.275659,87.2634481 Z M228.994677,21.4124546 L228.994677,23.0153979 L227.276974,24.7336247 L227.276974,21.0345249 C227.949423,21.2139664 228.546711,21.3382721 228.994677,21.4124546 Z M220.899224,13.2944844 C222.201031,13.2944844 223.185152,13.6674018 223.90771,14.4332859 C224.984031,15.5730898 225.219538,17.3133709 225.265638,18.2526816 C223.286371,17.3554745 221.181834,15.8427532 219.98826,13.2944844 L220.899224,13.2944844 Z M13.9671109,9.54425888 L27.5243382,9.54425888 C27.8079496,9.87306775 28.2218419,10.0855906 28.6888487,10.0855906 C29.1558555,10.0855906 29.5687456,9.87306775 29.852357,9.54425888 L201.147643,9.54425888 C201.431254,9.87306775 201.845147,10.0855906 202.312153,10.0855906 C202.77916,10.0855906 203.19205,9.87306775 203.476664,9.54425888 L217.032889,9.54425888 C217.070971,10.1587706 217.151144,10.736191 217.255369,11.2895523 L208.491475,11.2895523 L207.493323,11.2113599 L207.493323,12.213826 C207.488312,12.2418951 206.697608,15.0117088 196.084728,15.0117088 L34.916274,15.0117088 C24.3985996,15.0117088 23.5267199,12.2920184 23.5116875,12.2920184 L23.5116875,11.2895523 L13.7456334,11.2895523 C13.8498581,10.736191 13.9290288,10.1587706 13.9671109,9.54425888 Z M7.09329203,14.4332859 C7.81584975,13.6674018 8.79997137,13.2944844 10.1017779,13.2944844 L11.0127418,13.2944844 C9.81716428,15.8447581 7.71262722,17.3564769 5.73336023,18.2536841 C5.77745529,17.3424424 6.00695005,15.5831145 7.09329203,14.4332859 Z M2.00532316,23.0153979 L2.00532316,21.4124546 C2.45429107,21.3382721 3.05057657,21.2139664 3.72302626,21.0355274 L3.72302626,24.7326223 L2.00532316,23.0153979 Z M2.00532316,92.5875454 L2.00532316,90.9846021 L3.72402842,89.2663753 L3.72603275,92.9654751 C3.05258089,92.7860336 2.45529323,92.6617279 2.00532316,92.5875454 Z M10.1017779,100.705516 C8.79997137,100.705516 7.81584975,100.332598 7.09329203,99.5667141 C6.01697165,98.4269102 5.78146394,96.6866291 5.73536455,95.7473184 C7.71463154,96.6445255 9.81816644,98.1572468 11.0127418,100.705516 L10.1017779,100.705516 Z M217.032889,104.454739 L203.476664,104.454739 C203.194055,104.126932 202.780162,103.914409 202.313156,103.914409 C201.846149,103.914409 201.431254,104.126932 201.148645,104.454739 L29.8533592,104.454739 C29.5707499,104.126932 29.1568576,103.914409 28.6898508,103.914409 C28.2228441,103.914409 27.8079496,104.126932 27.5253403,104.454739 L13.9671109,104.454739 C13.9290288,103.841229 13.8498581,103.263809 13.7456334,102.710448 L22.509527,102.710448 L23.5086811,102.78864 L23.5086811,101.786174 C23.5136919,101.758105 24.3033943,98.9882912 34.916274,98.9882912 L196.084728,98.9882912 C206.602403,98.9882912 207.474282,101.708984 207.490317,101.708984 L207.490317,102.710448 L217.255369,102.710448 C217.151144,103.263809 217.070971,103.841229 217.032889,104.454739 Z M223.914725,99.5596969 C223.190163,100.330593 222.204037,100.705516 220.899224,100.705516 L219.98826,100.705516 C221.182836,98.1562444 223.288375,96.6435231 225.267642,95.7463159 C225.22054,96.6565551 224.988039,98.4168855 223.914725,99.5596969 Z M228.994677,92.5875454 C228.547713,92.6617279 227.950426,92.7860336 227.278978,92.9644726 L227.278978,89.2683802 L228.994677,90.9846021 L228.994677,92.5875454 Z" id="Stroke-2959" stroke="#DEB400" stroke-width="0.5" fill="none"></path>
                </g>
            </g>
        </g>
        <g id="Top-Left">
            <mask id="mask-8" fill="white">
                <use xlink:href="#path-7"></use>
            </mask>
            <g id="Rectangle"></g>
            <g id="Group-2961" mask="url(#mask-8)">
                <g transform="translate(1.000000, 1.000000)">
                    <path d="M226,12.3112322 L226,86.6897679 L225.524083,86.8777996 C223.106422,87.8279598 219.928296,89.7512839 218.514571,93.5139181 L218.33222,94 L208.75075,94 L208.541347,93.5909311 C208.033367,92.5987638 205.801064,90.2893746 196.070307,90.2893746 L34.9397118,90.2893746 C29.7396883,90.2893746 26.0425617,90.926482 23.951531,92.1826937 C23.2642061,92.5917627 22.7532211,93.0838456 22.4706765,93.6059336 L22.2572651,94 L12.6677804,94 L12.484427,93.5139181 C11.0636884,89.7422824 7.88956994,87.8229589 5.47691931,86.8777996 L5,86.6897679 L5,12.3112322 L5.47691931,12.1242007 C7.89257573,11.1770411 11.068698,9.25771759 12.484427,5.48708209 L12.6677804,5 L22.2622748,5 L22.4736823,5.40006743 C22.7532211,5.92615609 23.2501791,6.40723717 23.951531,6.82830814 C26.0465694,8.07751868 29.743696,8.71062539 34.9397118,8.71062539 L196.070307,8.71062539 C201.25931,8.71062539 204.953431,8.07751868 207.050473,6.82730797 C207.940188,6.29221779 208.34096,5.76112828 208.521308,5.41006911 L208.72971,5 L218.33222,5 L218.514571,5.48708209 C219.931302,9.25771759 223.107424,11.1770411 225.523081,12.1242007 L226,12.3112322 Z" id="Fill-2955" stroke="none" fill-opacity="0" fill="#FFFFFF" fill-rule="evenodd"></path>
                    <polygon id="Rectangle" stroke="none" fill="#595959" fill-rule="evenodd" points="9.60304707 9.5 12.6677804 5 20.8934196 5 28.0929417 8.77358301 35 8.77358301 35 14 5 14"></polygon>
                    <path d="M227.277976,20.5675963 L231,16.8454398 L231,12.6030034 L230.067991,12.5358382 C229.926686,12.5258135 228.781217,12.4315817 227.275972,11.993504 C227.285993,11.8220823 227.47941,8.30743629 225.375875,6.06692463 C224.267486,4.88702207 222.761239,4.2895523 220.899224,4.2895523 L219.307793,4.2895523 C219.116381,3.45850793 219.007145,2.54726628 219.007145,1.54179281 L219.007145,0.539326744 L203.476664,0.539326744 C203.19205,0.21152034 202.77916,0 202.312153,0 C201.845147,0 201.431254,0.21152034 201.147643,0.539326744 L29.852357,0.539326744 C29.5687456,0.21152034 29.1558555,0 28.6888487,0 C28.2218419,0 27.8079496,0.21152034 27.5243382,0.539326744 L11.9938569,0.539326744 L11.9938569,1.54179281 C11.9938569,2.54726628 11.8846214,3.45850793 11.6932087,4.2895523 L10.1017779,4.2895523 C8.23976365,4.2895523 6.73351641,4.88702207 5.6251269,6.06692463 C3.521592,8.30743629 3.71500898,11.8220823 3.72302626,11.9082944 C2.21978551,12.4315817 1.07431606,12.5258135 0.933011427,12.5358382 L0,12.6030034 L0,16.8454398 L3.72302626,20.5675963 L3.72302626,32.8483935 L3.72302626,66.903132 L3.72302626,79.4324037 L0,83.1545602 L0,87.3969966 L0.933011427,87.4641618 C1.07431606,87.4741865 2.22078767,87.5684183 3.72603275,88.006496 C3.71601114,88.1779177 3.52259416,91.6925637 5.6251269,93.9330754 C6.73351641,95.1129779 8.23976365,95.7104477 10.1017779,95.7104477 L11.6932087,95.7104477 C11.8846214,96.5414921 11.9938569,97.4527337 11.9938569,98.4572047 L11.9938569,99.4596708 L27.5263425,99.4596708 C27.8079496,99.7884797 28.2228441,100 28.6898508,100 C29.1568576,100 29.5707499,99.7884797 29.852357,99.4596708 L201.149647,99.4596708 C201.431254,99.7884797 201.846149,100 202.313156,100 C202.780162,100 203.194055,99.7884797 203.476664,99.4596708 L219.007145,99.4596708 L219.007145,98.4572047 C219.007145,97.4527337 219.116381,96.5414921 219.307793,95.7104477 L220.899224,95.7104477 C222.761239,95.7104477 224.267486,95.1129779 225.376877,93.9330754 C227.47941,91.6925637 227.285993,88.1779177 227.278978,88.0917056 C228.781217,87.5684183 229.926686,87.4741865 230.067991,87.4641618 L231,87.3969966 L231,83.1545602 L227.277976,79.4324037 L227.277976,20.5675963 Z M225.275659,80.2634481 L225.275659,86.6200854 C222.52072,87.6997414 219.309798,89.778856 217.830609,93.7055156 L209.23107,93.7055156 C208.501497,92.2689817 205.811698,89.9833591 196.084728,89.9833591 L34.916274,89.9833591 C29.5867845,89.9833591 25.7605357,90.6580187 23.5437567,91.9872887 C22.5646459,92.5747338 22.0555483,93.1992702 21.790978,93.7055156 L13.1703933,93.7055156 C11.6912044,89.7808609 8.48228649,87.7017463 5.72734727,86.6210879 L5.72734727,79.8474247 L5.72734727,79.8474247 L5.72734727,19.7375544 L5.72734727,13.3789121 C8.48028217,12.2992562 11.6912044,10.2201415 13.1703933,6.29448443 L21.7899758,6.29448443 C22.0545462,6.8007298 22.5636437,7.42526615 23.5437567,8.01271127 C25.7595335,9.34198127 29.5867845,10.0166409 34.916274,10.0166409 L196.084728,10.0166409 C201.414218,10.0166409 205.241469,9.34198127 207.457245,8.01271127 C208.437358,7.42526615 208.946456,6.8007298 209.212029,6.29448443 L217.830609,6.29448443 C219.309798,10.2191391 222.518716,12.2982537 225.272653,13.3789121 L225.272653,19.7375544 L225.272653,20.1525753 L225.272653,80.2624456 L225.275659,80.2634481 Z M228.994677,14.4124546 L228.994677,16.0153979 L227.276974,17.7336247 L227.276974,14.0345249 C227.949423,14.2139664 228.546711,14.3382721 228.994677,14.4124546 L228.994677,14.4124546 Z M220.899224,6.29448443 C222.201031,6.29448443 223.185152,6.66740181 223.90771,7.43328588 C224.984031,8.5730898 225.219538,10.3133709 225.265638,11.2526816 C223.286371,10.3554745 221.181834,8.84275317 219.98826,6.29448443 L220.899224,6.29448443 Z M13.9671109,2.54425888 L27.5243382,2.54425888 C27.8079496,2.87306775 28.2218419,3.08559055 28.6888487,3.08559055 C29.1558555,3.08559055 29.5687456,2.87306775 29.852357,2.54425888 L201.147643,2.54425888 C201.431254,2.87306775 201.845147,3.08559055 202.312153,3.08559055 C202.77916,3.08559055 203.19205,2.87306775 203.476664,2.54425888 L217.032889,2.54425888 C217.070971,3.15877058 217.151144,3.73619103 217.255369,4.2895523 L208.491475,4.2895523 L207.493323,4.21135995 L207.493323,5.21382601 C207.488312,5.24189506 206.697608,8.0117088 196.084728,8.0117088 L34.916274,8.0117088 C24.3985996,8.0117088 23.5267199,5.29201837 23.5116875,5.29201837 L23.5116875,4.2895523 L13.7456334,4.2895523 C13.8498581,3.73619103 13.9290288,3.15877058 13.9671109,2.54425888 L13.9671109,2.54425888 Z M7.09329203,7.43328588 C7.81584975,6.66740181 8.79997137,6.29448443 10.1017779,6.29448443 L11.0127418,6.29448443 C9.81716428,8.8447581 7.71262722,10.3564769 5.73336023,11.2536841 C5.77745529,10.3424424 6.00695005,8.58311446 7.09329203,7.43328588 L7.09329203,7.43328588 Z M2.00532316,16.0153979 L2.00532316,14.4124546 C2.45429107,14.3382721 3.05057657,14.2139664 3.72302626,14.0355274 L3.72302626,17.7326223 L2.00532316,16.0153979 Z M2.00532316,85.5875454 L2.00532316,83.9846021 L3.72402842,82.2663753 L3.72603275,85.9654751 C3.05258089,85.7860336 2.45529323,85.6617279 2.00532316,85.5875454 L2.00532316,85.5875454 Z M10.1017779,93.7055156 C8.79997137,93.7055156 7.81584975,93.3325982 7.09329203,92.5667141 C6.01697165,91.4269102 5.78146394,89.6866291 5.73536455,88.7473184 C7.71463154,89.6445255 9.81816644,91.1572468 11.0127418,93.7055156 L10.1017779,93.7055156 Z M217.032889,97.4547387 L203.476664,97.4547387 C203.194055,97.1269323 202.780162,96.9144094 202.313156,96.9144094 C201.846149,96.9144094 201.431254,97.1269323 201.148645,97.4547387 L29.8533592,97.4547387 C29.5707499,97.1269323 29.1568576,96.9144094 28.6898508,96.9144094 C28.2228441,96.9144094 27.8079496,97.1269323 27.5253403,97.4547387 L13.9671109,97.4547387 C13.9290288,96.8412294 13.8498581,96.263809 13.7456334,95.7104477 L22.509527,95.7104477 L23.5086811,95.7886401 L23.5086811,94.786174 C23.5136919,94.7581049 24.3033943,91.9882912 34.916274,91.9882912 L196.084728,91.9882912 C206.602403,91.9882912 207.474282,94.7089841 207.490317,94.7089841 L207.490317,95.7104477 L217.255369,95.7104477 C217.151144,96.263809 217.070971,96.8412294 217.032889,97.4547387 L217.032889,97.4547387 Z M223.914725,92.5596969 C223.190163,93.3305933 222.204037,93.7055156 220.899224,93.7055156 L219.98826,93.7055156 C221.182836,91.1562444 223.288375,89.6435231 225.267642,88.7463159 C225.22054,89.6565551 224.988039,91.4168855 223.914725,92.5596969 L223.914725,92.5596969 Z M228.994677,85.5875454 C228.547713,85.6617279 227.950426,85.7860336 227.278978,85.9644726 L227.278978,82.2683802 L228.994677,83.9846021 L228.994677,85.5875454 Z" id="Fill-2957" stroke="none" fill="#000000" fill-rule="evenodd"></path>
                    <path d="M227.277976,20.5675963 L231,16.8454398 L231,12.6030034 L230.067991,12.5358382 C229.926686,12.5258135 228.781217,12.4315817 227.275972,11.993504 L227.275972,11.9714498 C227.285993,11.8220823 227.47941,8.30743629 225.375875,6.06692463 C224.267486,4.88702207 222.761239,4.2895523 220.899224,4.2895523 L219.307793,4.2895523 C219.116381,3.45850793 219.007145,2.54726628 219.007145,1.54179281 L219.007145,0.539326744 L203.476664,0.539326744 C203.19205,0.21152034 202.77916,0 202.312153,0 C201.845147,0 201.431254,0.21152034 201.147643,0.539326744 L29.852357,0.539326744 C29.5687456,0.21152034 29.1558555,0 28.6888487,0 C28.2218419,0 27.8079496,0.21152034 27.5243382,0.539326744 L11.9938569,0.539326744 L11.9938569,1.54179281 C11.9938569,2.54726628 11.8846214,3.45850793 11.6932087,4.2895523 L10.1017779,4.2895523 C8.23976365,4.2895523 6.73351641,4.88702207 5.6251269,6.06692463 C3.521592,8.30743629 3.71500898,11.8220823 3.72302626,11.9082944 L3.72302626,11.9945065 C2.21978551,12.4315817 1.07431606,12.5258135 0.933011427,12.5358382 L0,12.6030034 L0,16.8454398 L3.72302626,20.5675963 L3.72302626,79.4324037 L0,83.1545602 L0,87.3969966 L0.933011427,87.4641618 C1.07431606,87.4741865 2.22078767,87.5684183 3.72603275,88.006496 L3.72603275,88.0285502 C3.71601114,88.1779177 3.52259416,91.6925637 5.6251269,93.9330754 C6.73351641,95.1129779 8.23976365,95.7104477 10.1017779,95.7104477 L11.6932087,95.7104477 C11.8846214,96.5414921 11.9938569,97.4527337 11.9938569,98.4572047 L11.9938569,99.4596708 L27.5263425,99.4596708 C27.8079496,99.7884797 28.2228441,100 28.6898508,100 C29.1568576,100 29.5707499,99.7884797 29.852357,99.4596708 L201.149647,99.4596708 C201.431254,99.7884797 201.846149,100 202.313156,100 C202.780162,100 203.194055,99.7884797 203.476664,99.4596708 L219.007145,99.4596708 L219.007145,98.4572047 C219.007145,97.4527337 219.116381,96.5414921 219.307793,95.7104477 L220.899224,95.7104477 C222.761239,95.7104477 224.267486,95.1129779 225.376877,93.9330754 C227.47941,91.6925637 227.285993,88.1779177 227.278978,88.0917056 L227.278978,88.0054935 C228.781217,87.5684183 229.926686,87.4741865 230.067991,87.4641618 L231,87.3969966 L231,83.1545602 L227.277976,79.4324037 L227.277976,20.5675963 Z M225.275659,80.2634481 L225.275659,86.6200854 C222.52072,87.6997414 219.309798,89.778856 217.830609,93.7055156 L209.23107,93.7055156 C208.501497,92.2689817 205.811698,89.9833591 196.084728,89.9833591 L34.916274,89.9833591 C29.5867845,89.9833591 25.7605357,90.6580187 23.5437567,91.9872887 C22.5646459,92.5747338 22.0555483,93.1992702 21.790978,93.7055156 L13.1703933,93.7055156 C11.6912044,89.7808609 8.48228649,87.7017463 5.72734727,86.6210879 L5.72734727,79.8474247 L5.72734727,79.8474247 L5.72734727,19.7375544 L5.72734727,13.3789121 C8.48028217,12.2992562 11.6912044,10.2201415 13.1703933,6.29448443 L21.7899758,6.29448443 C22.0545462,6.8007298 22.5636437,7.42526615 23.5437567,8.01271127 C25.7595335,9.34198127 29.5867845,10.0166409 34.916274,10.0166409 L196.084728,10.0166409 C201.414218,10.0166409 205.241469,9.34198127 207.457245,8.01271127 C208.437358,7.42526615 208.946456,6.8007298 209.212029,6.29448443 L217.830609,6.29448443 C219.309798,10.2191391 222.518716,12.2982537 225.272653,13.3789121 L225.272653,19.7375544 L225.272653,20.1525753 L225.272653,80.2624456 L225.275659,80.2634481 Z M228.994677,14.4124546 L228.994677,16.0153979 L227.276974,17.7336247 L227.276974,14.0345249 C227.949423,14.2139664 228.546711,14.3382721 228.994677,14.4124546 Z M220.899224,6.29448443 C222.201031,6.29448443 223.185152,6.66740181 223.90771,7.43328588 C224.984031,8.5730898 225.219538,10.3133709 225.265638,11.2526816 C223.286371,10.3554745 221.181834,8.84275317 219.98826,6.29448443 L220.899224,6.29448443 Z M13.9671109,2.54425888 L27.5243382,2.54425888 C27.8079496,2.87306775 28.2218419,3.08559055 28.6888487,3.08559055 C29.1558555,3.08559055 29.5687456,2.87306775 29.852357,2.54425888 L201.147643,2.54425888 C201.431254,2.87306775 201.845147,3.08559055 202.312153,3.08559055 C202.77916,3.08559055 203.19205,2.87306775 203.476664,2.54425888 L217.032889,2.54425888 C217.070971,3.15877058 217.151144,3.73619103 217.255369,4.2895523 L208.491475,4.2895523 L207.493323,4.21135995 L207.493323,5.21382601 C207.488312,5.24189506 206.697608,8.0117088 196.084728,8.0117088 L34.916274,8.0117088 C24.3985996,8.0117088 23.5267199,5.29201837 23.5116875,5.29201837 L23.5116875,4.2895523 L13.7456334,4.2895523 C13.8498581,3.73619103 13.9290288,3.15877058 13.9671109,2.54425888 Z M7.09329203,7.43328588 C7.81584975,6.66740181 8.79997137,6.29448443 10.1017779,6.29448443 L11.0127418,6.29448443 C9.81716428,8.8447581 7.71262722,10.3564769 5.73336023,11.2536841 C5.77745529,10.3424424 6.00695005,8.58311446 7.09329203,7.43328588 Z M2.00532316,16.0153979 L2.00532316,14.4124546 C2.45429107,14.3382721 3.05057657,14.2139664 3.72302626,14.0355274 L3.72302626,17.7326223 L2.00532316,16.0153979 Z M2.00532316,85.5875454 L2.00532316,83.9846021 L3.72402842,82.2663753 L3.72603275,85.9654751 C3.05258089,85.7860336 2.45529323,85.6617279 2.00532316,85.5875454 Z M10.1017779,93.7055156 C8.79997137,93.7055156 7.81584975,93.3325982 7.09329203,92.5667141 C6.01697165,91.4269102 5.78146394,89.6866291 5.73536455,88.7473184 C7.71463154,89.6445255 9.81816644,91.1572468 11.0127418,93.7055156 L10.1017779,93.7055156 Z M217.032889,97.4547387 L203.476664,97.4547387 C203.194055,97.1269323 202.780162,96.9144094 202.313156,96.9144094 C201.846149,96.9144094 201.431254,97.1269323 201.148645,97.4547387 L29.8533592,97.4547387 C29.5707499,97.1269323 29.1568576,96.9144094 28.6898508,96.9144094 C28.2228441,96.9144094 27.8079496,97.1269323 27.5253403,97.4547387 L13.9671109,97.4547387 C13.9290288,96.8412294 13.8498581,96.263809 13.7456334,95.7104477 L22.509527,95.7104477 L23.5086811,95.7886401 L23.5086811,94.786174 C23.5136919,94.7581049 24.3033943,91.9882912 34.916274,91.9882912 L196.084728,91.9882912 C206.602403,91.9882912 207.474282,94.7089841 207.490317,94.7089841 L207.490317,95.7104477 L217.255369,95.7104477 C217.151144,96.263809 217.070971,96.8412294 217.032889,97.4547387 Z M223.914725,92.5596969 C223.190163,93.3305933 222.204037,93.7055156 220.899224,93.7055156 L219.98826,93.7055156 C221.182836,91.1562444 223.288375,89.6435231 225.267642,88.7463159 C225.22054,89.6565551 224.988039,91.4168855 223.914725,92.5596969 Z M228.994677,85.5875454 C228.547713,85.6617279 227.950426,85.7860336 227.278978,85.9644726 L227.278978,82.2683802 L228.994677,83.9846021 L228.994677,85.5875454 Z" id="Stroke-2959" stroke="#DEB400" stroke-width="0.5" fill="none"></path>
                </g>
            </g>
        </g>
    </g>
</svg>